<?xml version="1.0" encoding="UTF-8" ?>
<!DOCTYPE svg PUBLIC "-//W3C//DTD SVG 1.1//EN" "http://www.w3.org/Graphics/SVG/1.1/DTD/svg11.dtd">
<svg width="1374pt" height="438pt" viewBox="0 0 1374 438" version="1.1" xmlns="http://www.w3.org/2000/svg">
<g id="#feed01ff">
<path fill="#feed01" opacity="1.00" d=" M 470.65 25.96 C 535.93 17.61 601.70 13.09 667.49 12.04 C 668.33 28.71 670.26 45.32 670.97 62.00 C 672.40 77.69 673.60 93.40 674.63 109.12 C 663.73 108.93 652.84 109.65 641.95 109.50 C 637.26 108.69 632.68 110.24 628.00 110.25 C 623.98 110.36 619.96 110.54 615.95 110.81 C 582.22 112.51 548.53 115.07 514.93 118.45 C 513.02 119.26 512.72 117.00 512.08 115.87 C 498.30 85.88 484.51 55.90 470.65 25.96 Z" />
<path fill="#feed01" opacity="1.00" d=" M 103.86 123.87 C 126.33 113.86 149.23 104.81 172.56 97.06 C 200.92 124.26 229.13 151.64 257.68 178.65 C 232.70 188.40 207.38 197.35 182.62 207.68 C 152.86 220.44 124.13 235.52 95.94 251.43 C 64.20 227.34 32.02 203.84 0.29 179.75 C 33.24 158.38 68.08 140.02 103.86 123.87 Z" />
<path fill="#feed01" opacity="1.00" d=" M 442.82 184.46 C 458.48 181.77 474.09 178.75 489.81 176.46 C 495.66 186.97 502.29 197.04 508.43 207.38 C 521.20 228.26 533.84 249.22 546.68 270.05 C 524.41 273.46 502.14 276.89 479.98 280.98 C 458.48 285.47 437.22 290.98 415.90 296.22 C 390.22 267.24 364.84 238.00 339.20 208.99 C 373.53 199.98 407.79 190.40 442.82 184.46 Z" />
<path fill="#feed01" opacity="1.00" d=" M 300.19 221.17 C 301.55 220.61 302.49 221.83 303.36 222.64 C 331.61 249.90 359.99 277.03 388.28 304.25 C 341.82 323.09 295.36 341.93 248.89 360.77 C 246.02 361.95 243.15 363.17 240.20 364.13 C 208.66 340.40 176.91 316.96 145.36 293.26 C 151.58 288.42 158.76 284.80 165.44 280.59 C 182.10 271.62 199.06 263.23 215.90 254.59 C 231.47 247.41 246.89 239.89 262.87 233.65 C 274.95 228.49 287.37 224.10 300.19 221.17 Z" />
</g>
<g id="#3baa34ff">
<path fill="#3baa34" opacity="1.00" d=" M 667.49 12.04 C 669.01 28.39 669.57 44.84 671.52 61.14 C 671.99 77.18 673.96 93.19 674.73 109.24 C 655.12 109.13 635.53 110.06 615.95 110.81 C 619.96 110.54 623.98 110.36 628.00 110.25 C 632.68 110.24 637.26 108.69 641.95 109.50 C 652.84 109.65 663.73 108.93 674.63 109.12 C 673.60 93.40 672.40 77.69 670.97 62.00 C 670.26 45.32 668.33 28.71 667.49 12.04 Z" />
<path fill="#3baa34" opacity="1.00" d=" M 589.00 166.09 C 618.45 163.24 648.09 163.68 677.63 162.58 C 679.12 188.04 681.13 213.47 682.66 238.93 C 683.27 246.12 683.83 253.33 683.85 260.56 C 649.65 260.52 615.55 263.44 581.43 265.51 C 575.72 254.36 570.84 242.79 565.51 231.45 C 555.99 211.14 546.92 190.62 537.21 170.41 C 554.46 168.86 571.72 167.33 589.00 166.09 Z" />
</g>
<g id="#1d71b9ff">
<path fill="#1d71b9" opacity="1.00" d=" M 721.73 13.34 C 756.55 14.93 791.34 17.23 826.04 20.48 C 857.89 23.93 889.57 28.86 921.13 34.34 C 906.72 65.17 892.30 96.00 878.11 126.92 C 865.36 125.48 852.72 122.99 839.96 121.52 C 803.19 116.63 766.11 114.95 729.17 111.91 C 724.57 111.57 719.97 111.31 715.37 111.09 C 717.04 78.48 719.81 45.93 721.73 13.34 Z" />
<path fill="#1d71b9" opacity="1.00" d=" M 971.08 44.10 C 1004.31 51.58 1037.45 59.50 1070.48 67.78 C 1108.87 78.03 1146.68 90.29 1184.43 102.62 C 1155.77 127.90 1127.22 153.28 1098.51 178.49 C 1072.78 170.87 1046.92 163.67 1021.05 156.55 C 998.33 150.22 975.15 145.74 952.09 140.86 C 941.08 138.66 930.11 136.24 919.06 134.24 C 936.10 104.03 954.05 74.32 971.08 44.10 Z" />
<path fill="#1d71b9" opacity="1.00" d=" M 1230.37 121.92 C 1231.45 121.36 1232.52 119.67 1233.91 120.40 C 1253.88 128.40 1273.81 136.51 1293.88 144.25 C 1321.17 154.14 1347.48 166.54 1373.22 179.91 C 1337.40 201.87 1301.43 223.58 1265.75 245.76 C 1246.83 236.77 1228.09 227.38 1208.89 218.99 C 1185.82 209.47 1162.38 200.89 1139.10 191.91 C 1169.61 168.70 1200.02 145.35 1230.37 121.92 Z" />
<path fill="#1d71b9" opacity="1.00" d=" M 711.56 163.41 C 728.49 164.54 745.43 165.66 762.35 166.93 C 793.09 169.00 823.54 173.97 853.98 178.56 C 839.13 210.51 824.35 242.50 809.36 274.38 C 797.86 273.05 786.57 270.39 775.07 269.08 C 751.85 266.00 728.58 263.00 705.19 261.69 C 706.96 228.91 709.64 196.18 711.56 163.41 Z" />
<path fill="#1d71b9" opacity="1.00" d=" M 889.29 185.12 C 911.91 190.21 934.55 195.21 957.14 200.44 C 986.68 207.92 1015.79 216.99 1044.94 225.88 C 1014.99 252.36 985.06 278.86 955.07 305.29 C 915.10 296.29 875.16 287.16 835.17 278.28 C 853.25 247.25 871.30 216.20 889.29 185.12 Z" />
<path fill="#1d71b9" opacity="1.00" d=" M 980.84 313.35 C 1013.80 288.15 1046.72 262.89 1079.62 237.61 C 1100.12 245.41 1120.70 253.01 1141.23 260.73 C 1150.15 263.82 1158.53 268.20 1167.16 272.00 C 1182.31 278.99 1197.53 285.83 1212.65 292.86 C 1212.67 292.99 1212.69 293.26 1212.70 293.40 C 1176.88 315.36 1141.01 337.24 1105.17 359.18 C 1102.45 360.75 1099.93 362.69 1097.04 363.94 C 1077.33 354.27 1058.42 342.78 1037.89 334.82 C 1018.99 327.35 999.95 320.27 980.84 313.35 Z" />
<path fill="#1d71b9" opacity="1.00" d=" M 647.07 311.78 C 665.03 310.75 683.04 309.94 701.01 311.18 C 715.04 311.24 728.97 313.01 742.96 313.98 C 750.20 314.62 757.47 315.05 764.67 316.19 C 752.62 344.13 739.93 371.80 727.89 399.75 C 718.56 399.33 709.23 399.09 699.92 398.51 C 682.60 398.78 665.28 398.44 647.97 398.07 C 635.32 370.30 622.14 342.78 609.47 315.02 C 621.89 313.18 634.54 312.82 647.07 311.78 Z" />
</g>
<g id="#e6332aff">
<path fill="#e6332a" opacity="1.00" d=" M 328.83 50.92 C 355.15 45.24 381.57 40.03 408.07 35.27 C 420.43 56.03 433.17 76.57 445.70 97.23 C 451.57 106.68 457.11 116.35 463.19 125.67 C 409.28 133.60 356.51 147.74 304.52 163.80 C 279.75 135.06 254.51 106.74 229.56 78.16 C 261.58 65.60 295.37 58.48 328.83 50.92 Z" />
</g>
<g id="#71f41cff">
<path fill="#71f41c" opacity="1.00" d=" M 544.98 326.74 C 552.02 325.15 559.25 324.77 566.31 323.34 C 580.81 350.77 595.52 378.08 609.95 405.54 C 584.41 407.62 559.19 412.29 533.99 416.86 C 522.66 419.35 511.26 421.59 499.88 423.89 C 496.61 424.76 493.29 425.51 489.92 425.82 C 475.64 411.51 460.98 397.58 446.53 383.45 C 438.52 375.70 430.83 367.63 422.61 360.12 C 422.51 359.77 422.32 359.08 422.22 358.74 C 438.82 353.55 455.05 347.16 471.96 342.94 C 496.05 336.47 520.53 331.62 544.98 326.74 Z" />
</g>
<g id="#9d9d9dff">
<path fill="#9d9d9d" opacity="1.00" d=" M 800.53 331.57 C 801.29 330.33 801.96 328.13 803.93 329.07 C 819.53 332.12 835.22 334.90 850.51 339.34 C 855.70 340.58 860.91 341.74 866.12 342.94 C 867.74 343.24 869.32 343.69 870.86 344.32 C 872.19 344.48 873.66 344.30 874.86 345.10 C 878.92 345.83 882.84 347.14 886.83 348.20 C 891.32 349.27 895.78 350.47 900.20 351.85 C 904.94 353.06 909.51 355.08 914.40 355.72 C 914.37 355.93 914.33 356.37 914.31 356.58 C 919.66 357.25 924.56 359.81 929.84 360.85 C 923.96 365.54 919.09 371.37 913.56 376.46 C 901.63 388.23 889.88 400.19 877.99 412.00 C 873.57 416.58 868.70 420.72 864.53 425.53 C 862.73 425.56 860.91 425.53 859.23 424.85 C 853.14 423.85 847.22 422.10 841.15 420.99 C 830.80 418.79 820.30 417.31 809.99 414.89 C 798.83 413.06 787.81 410.23 776.51 409.28 C 770.06 408.27 763.56 407.67 757.10 406.76 C 772.03 381.96 786.39 356.83 800.53 331.57 Z" />
</g>
</svg>
