<?xml version="1.0" encoding="UTF-8" ?>
<!DOCTYPE svg PUBLIC "-//W3C//DTD SVG 1.1//EN" "http://www.w3.org/Graphics/SVG/1.1/DTD/svg11.dtd">
<svg width="1100pt" height="150pt" viewBox="0 0 1100 150" version="1.1" xmlns="http://www.w3.org/2000/svg">
<g id="#ffffffff">
<path fill="#ffffff" opacity="1.00" d=" M 103.83 29.14 C 113.81 20.11 126.48 13.97 139.90 12.48 C 145.50 11.88 151.15 12.20 156.77 12.09 C 156.78 18.91 156.75 25.72 156.79 32.54 C 150.87 32.68 144.86 32.05 139.03 33.38 C 127.27 35.71 116.63 43.22 110.61 53.60 C 104.52 63.82 103.08 76.69 106.93 87.97 C 111.30 101.43 122.92 112.20 136.62 115.69 C 143.18 117.53 150.05 117.20 156.80 117.19 C 156.76 123.99 156.75 130.78 156.81 137.57 C 152.87 137.56 148.93 137.63 145.00 137.54 C 129.79 137.08 114.95 130.75 103.83 120.41 C 103.99 126.10 103.68 131.81 104.05 137.50 C 97.37 137.56 90.68 137.56 84.00 137.50 C 84.22 97.06 84.04 56.62 84.09 16.17 C 90.69 16.17 97.29 16.17 103.90 16.17 C 103.86 20.49 103.90 24.82 103.83 29.14 Z" />
<path fill="#ffffff" opacity="1.00" d=" M 174.16 12.27 C 179.13 12.31 184.12 12.13 189.08 12.50 C 206.09 13.90 222.39 22.52 233.05 35.86 C 241.95 46.80 247.08 60.87 246.86 75.01 C 247.16 91.77 239.89 108.32 227.88 119.93 C 217.94 129.52 204.83 135.79 191.10 137.39 C 185.47 138.00 179.81 137.76 174.17 137.82 C 174.19 131.00 174.21 124.19 174.15 117.38 C 179.81 117.26 185.53 117.77 191.12 116.64 C 204.11 114.37 215.80 105.71 221.69 93.90 C 226.92 83.69 227.65 71.32 223.61 60.58 C 218.52 46.58 205.56 35.83 190.86 33.41 C 185.36 32.31 179.72 32.85 174.15 32.71 C 174.21 25.89 174.19 19.08 174.16 12.27 Z" />
<path fill="#ffffff" opacity="1.00" d=" M 285.73 13.49 C 289.51 12.67 293.50 12.64 297.28 13.49 C 297.12 20.19 297.23 26.89 297.22 33.58 C 303.76 33.45 310.31 33.48 316.85 33.57 C 316.87 26.89 316.92 20.22 316.82 13.54 C 320.55 12.58 324.56 12.67 328.31 13.52 C 328.15 30.51 328.26 47.51 328.25 64.51 C 324.46 64.47 320.66 64.49 316.87 64.47 C 316.88 57.36 316.88 50.25 316.87 43.14 C 310.32 43.11 303.76 43.14 297.21 43.12 C 297.21 50.25 297.17 57.37 297.23 64.50 C 293.42 64.48 289.60 64.48 285.78 64.49 C 285.77 47.49 285.87 30.49 285.73 13.49 Z" />
<path fill="#ffffff" opacity="1.00" d=" M 349.52 14.63 C 356.42 11.45 364.45 11.93 371.36 14.79 L 371.36 15.29 C 372.87 16.00 374.24 16.96 375.64 17.86 L 375.14 18.88 L 376.73 18.22 L 376.14 19.74 L 377.14 19.44 C 378.22 21.13 379.31 22.82 380.35 24.55 C 381.34 27.12 382.21 29.76 382.71 32.48 C 384.13 38.80 382.85 45.29 381.21 51.44 L 380.13 51.44 C 380.29 51.92 380.62 52.88 380.79 53.36 L 379.19 53.40 C 379.32 53.89 379.59 54.85 379.73 55.34 L 378.77 55.29 C 377.31 58.88 373.82 60.91 370.84 63.09 C 364.09 66.20 356.33 65.98 349.52 63.22 L 349.63 62.19 C 349.27 62.27 348.55 62.43 348.19 62.51 C 347.11 61.02 345.41 60.25 344.03 59.11 C 342.58 57.46 341.51 55.55 340.32 53.72 C 335.66 44.65 336.20 33.88 339.78 24.55 L 340.87 24.57 C 340.72 24.11 340.42 23.18 340.27 22.72 L 341.22 22.69 C 341.84 21.27 342.83 20.07 343.84 18.90 C 344.10 18.64 344.63 18.13 344.89 17.87 C 346.31 16.63 347.88 15.57 349.52 14.63 M 350.67 27.80 C 347.90 34.18 347.74 41.54 349.91 48.12 C 350.55 49.18 351.17 50.26 351.75 51.35 C 352.66 52.19 353.58 53.00 354.53 53.79 L 354.58 54.23 C 358.02 55.62 361.81 55.80 365.28 54.35 C 366.72 53.11 368.07 51.75 369.28 50.27 C 369.52 49.76 370.00 48.73 370.24 48.21 C 372.40 41.52 372.61 33.56 369.08 27.31 C 366.52 22.98 361.38 21.76 356.72 22.64 C 354.33 23.90 352.24 25.60 350.67 27.80 Z" />
<path fill="#ffffff" opacity="1.00" d=" M 391.78 13.55 C 396.53 12.46 401.57 12.79 406.37 13.43 C 407.03 15.18 407.85 16.86 408.68 18.54 C 408.94 19.04 409.46 20.04 409.71 20.54 C 409.96 21.04 410.45 22.04 410.70 22.55 C 411.72 24.53 412.69 26.53 413.67 28.53 C 414.36 29.85 415.02 31.18 415.66 32.53 C 417.60 36.95 420.54 41.01 421.65 45.75 L 422.72 45.64 C 422.59 46.11 422.32 47.05 422.19 47.51 C 422.90 47.66 424.33 47.95 425.04 48.10 C 424.10 36.56 424.84 24.97 424.47 13.41 C 428.09 12.74 431.80 12.95 435.47 12.95 C 435.56 30.15 435.37 47.36 435.57 64.56 C 430.72 64.43 425.87 64.47 421.02 64.53 L 421.92 63.36 L 420.35 63.38 C 420.46 62.89 420.67 61.91 420.77 61.43 L 419.40 61.26 C 419.50 60.80 419.69 59.89 419.79 59.43 L 418.45 59.28 C 418.53 58.82 418.68 57.90 418.75 57.44 L 417.47 57.19 C 417.51 56.85 417.59 56.17 417.63 55.83 C 416.63 54.46 415.92 52.92 415.36 51.33 L 414.53 51.18 C 414.55 50.84 414.59 50.16 414.61 49.83 C 413.74 48.44 412.98 46.99 412.30 45.51 C 412.05 45.00 411.55 43.99 411.30 43.49 C 410.61 42.16 409.95 40.82 409.31 39.47 C 409.06 38.97 408.56 37.96 408.31 37.46 C 407.21 35.35 406.15 33.21 405.22 31.02 C 404.65 31.02 403.53 31.00 402.97 31.00 C 403.58 42.16 403.15 53.34 403.33 64.51 C 399.49 64.47 395.66 64.50 391.83 64.47 C 391.79 47.50 391.89 30.52 391.78 13.55 Z" />
<path fill="#ffffff" opacity="1.00" d=" M 456.89 14.63 C 463.77 11.44 472.08 11.77 478.94 14.88 C 479.26 15.21 479.91 15.86 480.24 16.19 C 482.31 16.97 483.73 18.72 485.19 20.30 C 491.67 29.58 491.91 42.06 488.19 52.45 L 487.12 52.43 C 487.28 52.90 487.60 53.84 487.76 54.31 L 486.75 54.32 C 486.00 55.83 485.02 57.23 484.21 58.71 L 483.26 57.99 L 483.74 59.64 L 482.10 59.23 L 482.61 60.22 C 481.21 61.04 479.84 61.94 478.41 62.70 L 478.27 63.17 C 471.29 66.09 463.03 66.41 456.28 62.66 C 454.96 61.83 453.70 60.93 452.40 60.10 L 452.73 59.01 L 451.10 59.89 L 452.00 58.25 L 450.87 58.63 C 449.98 57.21 449.02 55.83 448.25 54.35 L 447.37 54.24 C 447.43 53.90 447.57 53.21 447.64 52.87 C 444.63 48.23 444.47 42.35 444.56 36.99 C 444.44 31.74 446.10 26.52 448.90 22.11 C 450.87 18.93 453.76 16.63 456.89 14.63 M 462.08 23.92 C 459.35 25.37 458.11 28.33 456.74 30.92 C 455.76 36.96 455.50 43.36 457.76 49.16 C 459.49 51.83 461.85 54.05 464.79 55.34 C 466.60 55.35 468.41 55.35 470.24 55.35 C 471.97 54.45 473.63 53.42 475.21 52.26 C 476.24 50.61 477.23 48.95 478.18 47.25 C 480.02 39.34 480.20 29.19 473.15 23.70 C 469.67 22.19 465.40 21.79 462.08 23.92 Z" />
<path fill="#ffffff" opacity="1.00" d=" M 499.44 13.39 C 505.58 12.50 511.80 13.14 517.98 12.92 C 523.88 12.78 529.90 14.03 534.62 17.76 L 534.17 18.99 L 535.21 18.32 C 535.66 19.39 536.29 20.35 537.12 21.18 C 538.28 23.47 538.51 26.02 538.81 28.53 C 538.54 30.16 538.40 31.81 538.26 33.46 L 537.06 33.48 C 537.25 33.95 537.65 34.88 537.84 35.35 L 536.75 35.27 C 535.92 37.80 533.70 39.73 531.31 40.77 L 531.31 41.66 C 530.78 41.54 529.72 41.31 529.19 41.20 C 528.60 44.81 533.19 44.64 533.93 47.73 C 534.66 48.59 535.39 49.47 535.66 50.60 L 536.12 50.75 C 536.87 52.97 537.92 55.07 538.66 57.29 C 539.82 59.68 540.57 62.26 541.97 64.53 C 537.94 64.45 533.91 64.49 529.89 64.49 C 529.35 62.77 528.68 61.07 528.39 59.29 L 527.83 59.42 C 527.27 56.92 525.75 54.76 525.28 52.24 C 524.92 51.90 524.22 51.22 523.86 50.89 C 523.45 49.74 523.08 48.47 521.68 48.21 C 518.40 45.77 514.25 46.21 510.41 46.16 C 510.56 52.29 510.36 58.43 510.54 64.57 C 506.85 64.44 503.16 64.45 499.48 64.55 C 499.56 47.50 499.63 30.44 499.44 13.39 M 510.61 23.16 C 510.66 27.59 510.72 32.02 510.57 36.44 C 515.97 36.13 521.77 37.30 526.58 34.14 C 526.52 33.91 526.40 33.45 526.35 33.22 C 528.79 30.13 527.06 25.86 524.37 23.56 C 519.81 22.88 515.20 23.18 510.61 23.16 Z" />
<path fill="#ffffff" opacity="1.00" d=" M 564.57 13.42 C 569.41 12.54 574.36 13.08 579.26 12.94 C 581.45 20.93 584.32 28.72 586.59 36.67 L 587.12 36.70 C 588.11 40.41 589.95 43.89 590.59 47.70 L 591.14 47.59 C 591.84 50.32 593.16 52.88 593.58 55.69 L 594.13 55.66 C 594.97 58.66 596.29 61.52 596.90 64.60 C 593.17 64.43 589.44 64.46 585.71 64.53 C 584.88 62.19 583.88 59.89 583.51 57.42 C 576.00 57.57 568.49 57.49 560.97 57.46 C 560.69 58.44 560.42 59.43 560.17 60.42 L 559.60 60.27 C 559.40 61.74 558.90 63.15 558.49 64.57 C 554.67 64.43 550.86 64.45 547.06 64.57 C 548.40 60.96 549.78 57.35 550.86 53.65 L 551.42 53.67 C 551.83 50.87 553.16 48.33 553.84 45.60 L 554.42 45.70 C 555.02 41.87 556.92 38.41 557.87 34.66 L 558.42 34.68 C 560.27 27.55 563.14 20.69 564.57 13.42 M 571.27 27.46 C 569.80 34.40 567.21 41.02 564.96 47.72 C 569.70 47.84 574.46 47.82 579.21 47.74 C 577.09 40.73 574.05 33.96 572.87 26.68 C 572.47 26.87 571.67 27.26 571.27 27.46 Z" />
<path fill="#ffffff" opacity="1.00" d=" M 604.67 13.50 C 609.70 12.40 614.89 13.17 620.00 12.94 C 625.20 12.69 630.42 13.28 635.41 14.79 L 635.41 15.80 C 635.78 15.72 636.50 15.56 636.87 15.48 C 637.45 16.71 638.40 17.46 639.72 17.73 L 639.16 19.06 L 640.35 18.22 C 640.63 19.39 641.22 20.39 642.13 21.23 C 643.30 24.70 643.87 28.51 642.13 31.91 C 641.36 32.59 640.74 33.39 640.28 34.29 C 639.11 34.69 638.33 35.50 637.93 36.73 C 637.58 36.54 636.87 36.16 636.52 35.97 C 636.48 36.59 636.41 37.82 636.38 38.44 C 637.72 39.10 639.01 39.86 640.29 40.65 C 640.59 41.99 641.45 42.70 642.88 42.78 L 642.04 43.62 L 643.25 43.61 C 643.85 45.72 644.64 47.79 644.94 49.98 C 644.67 52.50 643.96 54.95 643.26 57.38 L 642.76 57.29 C 640.03 62.39 633.48 64.49 627.95 64.48 C 620.20 64.52 612.46 64.45 604.72 64.51 C 604.73 47.50 604.83 30.50 604.67 13.50 M 616.32 23.23 C 616.29 26.51 616.27 29.80 616.39 33.08 C 620.62 32.79 625.11 33.76 629.15 32.15 C 632.78 30.67 632.27 24.64 628.49 23.68 C 624.53 22.67 620.36 23.35 616.32 23.23 M 616.32 43.27 C 616.29 47.04 616.31 50.80 616.30 54.56 C 620.68 54.44 625.15 55.03 629.49 54.22 C 634.25 53.17 634.53 45.51 629.96 44.01 C 625.55 42.66 620.85 43.40 616.32 43.27 Z" />
<path fill="#ffffff" opacity="1.00" d=" M 652.99 18.00 C 652.94 16.29 653.31 14.61 653.62 12.93 C 657.25 12.96 660.91 12.74 664.51 13.40 C 664.24 27.20 664.54 41.01 664.36 54.81 C 671.73 54.75 679.11 54.87 686.49 54.74 C 687.36 57.96 687.12 61.33 686.60 64.58 C 675.54 64.41 664.48 64.45 653.43 64.56 C 652.78 61.07 653.01 57.52 652.99 53.99 C 652.99 41.99 652.99 30.00 652.99 18.00 Z" />
<path fill="#ffffff" opacity="1.00" d=" M 695.58 13.47 C 703.33 12.34 711.23 13.22 719.04 12.94 C 723.53 13.11 728.12 12.46 732.55 13.52 C 731.25 16.20 730.53 19.09 730.02 22.00 C 729.71 22.25 729.11 22.75 728.81 23.00 C 721.59 23.25 714.36 22.99 707.13 23.12 C 707.12 26.60 707.12 30.09 707.17 33.57 C 713.47 33.43 719.79 33.54 726.10 33.51 C 725.99 36.73 726.55 40.07 725.45 43.18 C 719.34 43.07 713.24 43.14 707.13 43.14 C 707.12 47.02 707.13 50.90 707.12 54.78 C 715.24 54.77 723.36 54.87 731.47 54.72 C 732.51 57.87 732.07 61.22 732.14 64.48 C 719.97 64.51 707.80 64.45 695.64 64.51 C 695.65 47.50 695.76 30.48 695.58 13.47 Z" />
<path fill="#ffffff" opacity="1.00" d=" M 766.04 14.90 C 774.36 10.98 783.97 12.19 792.42 14.98 C 791.14 18.15 790.49 21.53 789.26 24.71 C 784.42 21.83 778.58 22.27 773.18 22.46 L 773.36 23.15 C 770.46 23.81 767.61 26.45 767.25 29.46 L 766.67 29.12 C 765.41 33.78 765.08 38.60 765.53 43.41 C 766.63 46.27 766.70 49.75 768.95 52.04 C 771.93 55.74 777.02 55.91 781.38 55.46 C 783.09 54.80 784.93 54.59 786.76 54.45 L 786.68 53.81 C 787.35 53.69 788.68 53.46 789.34 53.34 C 790.40 56.34 791.12 59.49 792.77 62.24 C 784.50 65.58 775.04 66.83 766.66 63.17 L 766.58 62.20 C 766.15 62.29 765.29 62.47 764.86 62.56 L 764.68 61.32 L 763.88 61.49 C 763.45 59.37 760.57 59.65 760.26 57.43 L 759.69 57.47 C 752.87 48.05 752.63 35.27 756.84 24.74 L 757.33 24.59 C 758.02 23.05 758.98 21.67 759.82 20.21 C 761.28 18.67 762.69 16.92 764.78 16.19 C 765.09 15.87 765.72 15.22 766.04 14.90 Z" />
<path fill="#ffffff" opacity="1.00" d=" M 803.24 22.68 C 808.50 12.85 821.49 10.44 831.41 13.81 L 831.45 14.88 C 831.92 14.73 832.85 14.42 833.31 14.26 L 833.33 15.27 C 834.88 15.94 836.24 16.98 837.67 17.88 L 837.21 18.99 L 838.93 18.11 L 838.00 19.79 L 839.11 19.36 C 839.92 20.69 840.82 21.97 841.67 23.29 C 846.48 32.70 846.53 44.27 842.08 53.83 C 840.76 55.61 839.54 57.46 838.16 59.18 C 836.45 60.57 834.62 61.78 832.87 63.08 C 826.14 66.20 818.37 66.00 811.58 63.22 L 811.65 62.64 C 808.08 61.70 806.17 58.56 803.82 56.09 C 803.05 54.89 802.38 53.67 801.69 52.44 C 797.93 43.58 798.41 33.50 801.82 24.61 L 802.82 24.56 C 802.71 24.12 802.47 23.23 802.35 22.79 L 803.24 22.68 M 812.51 27.90 C 812.51 28.13 812.52 28.59 812.52 28.82 C 809.04 36.65 809.55 47.18 815.80 53.54 L 816.70 53.38 L 816.50 54.23 C 819.97 55.58 823.77 55.84 827.26 54.40 C 834.62 49.41 834.25 39.55 833.31 31.74 C 832.67 30.43 832.03 29.13 831.36 27.85 C 831.37 27.64 831.38 27.23 831.39 27.02 C 830.53 26.39 829.77 25.66 829.10 24.84 C 824.02 20.43 815.89 22.30 812.51 27.90 Z" />
<path fill="#ffffff" opacity="1.00" d=" M 853.82 13.57 C 858.75 12.40 863.98 12.81 868.97 13.51 L 868.07 14.56 L 869.53 14.71 C 869.46 15.17 869.32 16.08 869.25 16.54 L 870.48 16.82 C 870.46 17.16 870.41 17.83 870.39 18.17 C 871.26 19.55 872.03 21.01 872.72 22.51 C 872.96 23.02 873.46 24.03 873.71 24.54 C 874.39 25.85 875.05 27.18 875.70 28.52 C 875.95 29.03 876.45 30.03 876.71 30.54 C 876.95 31.03 877.45 32.03 877.69 32.53 C 878.37 33.85 879.04 35.18 879.68 36.53 C 881.26 40.23 883.85 43.58 884.57 47.60 C 885.19 47.72 886.43 47.96 887.05 48.08 C 886.16 36.55 886.87 24.98 886.51 13.43 C 890.09 12.71 893.76 12.97 897.40 12.93 C 897.69 14.61 898.02 16.30 898.01 18.02 C 898.01 31.66 897.99 45.30 898.02 58.94 C 898.04 60.83 897.87 62.71 897.59 64.57 C 892.75 64.42 887.92 64.48 883.09 64.53 L 883.87 63.37 L 882.39 63.32 C 882.48 62.85 882.68 61.91 882.77 61.44 L 881.47 61.22 C 881.51 60.87 881.57 60.17 881.60 59.82 C 880.56 58.13 879.68 56.36 878.81 54.59 C 878.30 53.54 877.80 52.50 877.31 51.45 C 876.61 50.15 875.94 48.83 875.31 47.49 C 875.06 46.99 874.57 45.98 874.32 45.48 C 874.07 44.97 873.57 43.96 873.32 43.45 C 872.28 41.48 871.30 39.47 870.35 37.46 C 869.00 35.04 867.85 32.50 867.02 29.85 C 866.35 29.56 865.02 28.97 864.35 28.68 C 866.06 40.54 865.06 52.57 865.37 64.52 C 861.54 64.47 857.70 64.50 853.88 64.47 C 853.82 47.50 853.94 30.53 853.82 13.57 Z" />
<path fill="#ffffff" opacity="1.00" d=" M 918.64 14.79 C 925.48 12.02 933.27 11.60 940.33 13.80 C 941.75 14.34 943.22 14.73 944.74 14.97 C 943.88 18.07 942.80 21.11 941.95 24.22 C 939.55 24.39 937.43 22.47 934.99 22.46 C 931.09 22.29 926.87 21.72 923.48 24.07 C 921.84 24.99 920.37 26.19 920.16 28.18 L 919.59 28.34 C 917.45 35.15 917.28 42.83 919.71 49.58 C 921.05 51.52 922.23 53.67 924.62 54.48 C 930.29 56.93 936.37 54.96 941.95 53.31 C 942.42 55.46 943.18 57.54 943.61 59.71 L 944.28 59.56 C 944.41 60.50 944.55 61.45 944.71 62.39 C 936.58 65.48 927.29 66.89 919.14 63.08 C 917.37 61.77 915.52 60.58 913.83 59.18 C 913.59 58.92 913.10 58.38 912.86 58.12 C 911.94 57.02 911.06 55.89 910.30 54.69 C 905.54 45.77 905.54 35.02 908.82 25.61 L 909.86 25.53 C 909.72 25.08 909.43 24.18 909.29 23.73 L 910.25 23.67 C 910.98 22.14 911.96 20.76 912.86 19.32 L 913.95 19.77 L 913.20 18.09 L 915.00 18.89 L 914.28 17.83 C 915.71 16.99 917.07 15.97 918.63 15.32 L 918.64 14.79 Z" />
<path fill="#ffffff" opacity="1.00" d=" M 954.54 12.94 C 966.60 12.94 978.66 12.94 990.72 12.94 C 990.23 16.22 989.20 19.37 988.45 22.59 C 980.83 23.65 973.10 22.83 965.44 23.12 C 965.51 26.32 965.35 29.53 965.52 32.72 C 965.71 32.91 966.10 33.27 966.29 33.46 C 972.37 33.57 978.46 33.54 984.55 33.43 C 984.42 36.66 984.46 39.89 984.47 43.12 C 978.12 43.13 971.77 43.11 965.42 43.14 C 965.48 47.03 965.50 50.91 965.41 54.79 C 973.76 54.78 982.12 54.82 990.48 54.78 C 990.45 58.04 990.42 61.29 990.54 64.55 C 978.51 64.45 966.48 64.44 954.45 64.55 C 954.62 47.35 954.43 30.15 954.54 12.94 Z" />
<path fill="#ffffff" opacity="1.00" d=" M 1013.53 12.95 C 1017.19 12.95 1020.90 12.74 1024.53 13.42 C 1024.30 25.27 1024.54 37.13 1024.41 48.99 C 1024.44 53.28 1022.62 57.27 1020.16 60.69 L 1018.93 60.15 L 1019.75 61.23 C 1016.25 63.53 1012.34 65.56 1008.03 65.40 C 1004.24 65.72 1000.78 64.00 997.20 63.10 C 997.70 61.29 998.32 59.51 998.85 57.71 L 999.38 57.68 C 999.64 56.14 1000.23 54.70 1000.76 53.23 C 1003.57 56.31 1009.02 56.37 1012.36 53.93 C 1012.58 52.38 1012.90 50.84 1013.44 49.37 C 1013.61 37.23 1013.45 25.09 1013.53 12.95 Z" />
<path fill="#ffffff" opacity="1.00" d=" M 1044.29 15.30 C 1051.35 11.36 1060.03 11.76 1067.35 14.79 L 1067.37 15.28 C 1068.81 15.96 1070.12 16.90 1071.45 17.79 L 1071.29 18.78 L 1072.76 18.39 L 1072.09 19.71 L 1073.13 19.47 C 1080.10 28.51 1080.59 40.89 1077.21 51.45 L 1076.10 51.46 C 1076.28 51.93 1076.62 52.88 1076.80 53.36 L 1075.22 53.39 C 1075.34 53.88 1075.58 54.86 1075.70 55.35 L 1074.77 55.29 C 1072.70 59.26 1068.72 62.86 1064.24 63.56 L 1064.47 64.21 C 1058.18 65.98 1051.57 65.69 1045.51 63.24 L 1045.63 62.18 C 1045.26 62.27 1044.53 62.45 1044.16 62.53 C 1043.17 60.95 1041.38 60.28 1040.02 59.12 C 1038.53 57.39 1037.29 55.45 1036.32 53.40 L 1035.83 53.27 C 1033.00 45.90 1031.87 37.76 1034.08 30.07 C 1034.61 28.22 1035.29 26.40 1035.77 24.52 L 1036.86 24.59 C 1036.71 24.12 1036.41 23.18 1036.25 22.71 L 1037.28 22.65 C 1037.69 21.13 1038.88 20.06 1039.88 18.92 C 1040.13 18.65 1040.63 18.11 1040.89 17.84 C 1041.97 16.95 1043.09 16.08 1044.29 15.30 M 1046.66 27.76 C 1043.90 34.44 1043.27 42.62 1046.65 49.17 C 1046.58 49.48 1046.44 50.09 1046.38 50.39 C 1046.58 50.37 1046.98 50.33 1047.19 50.31 C 1048.17 51.81 1049.43 53.11 1050.81 54.27 C 1054.12 55.67 1057.78 55.76 1061.14 54.40 C 1062.67 53.16 1064.08 51.78 1065.28 50.20 C 1065.52 49.70 1065.98 48.72 1066.22 48.23 C 1068.42 40.92 1068.98 31.55 1063.54 25.50 C 1060.90 22.25 1056.51 22.21 1052.72 22.64 C 1050.33 23.88 1048.23 25.57 1046.66 27.76 Z" />
<path fill="#ffffff" opacity="1.00" d=" M 13.10 14.64 C 19.84 14.61 26.58 14.63 33.32 14.63 C 33.29 31.36 33.34 48.09 33.30 64.81 C 44.99 64.79 56.68 64.82 68.38 64.80 C 68.39 70.44 68.37 76.09 68.39 81.73 C 56.70 81.71 45.01 81.74 33.32 81.71 C 33.31 99.77 33.32 117.82 33.32 135.88 C 26.58 135.87 19.85 135.88 13.12 135.87 C 13.13 95.46 13.17 55.05 13.10 14.64 Z" />
<path fill="#ffffff" opacity="1.00" d=" M 140.29 50.11 C 152.98 47.05 167.09 55.19 170.58 67.80 C 174.52 79.90 167.63 94.01 155.85 98.61 C 147.85 102.00 138.16 101.04 131.03 96.06 C 124.71 91.83 120.55 84.61 119.99 77.03 C 118.74 64.62 128.09 52.43 140.29 50.11 Z" />
<path fill="#ffffff" opacity="1.00" d=" M 847.51 97.76 C 850.72 97.02 853.85 95.40 857.24 95.84 C 859.98 96.24 862.66 96.97 865.31 97.79 L 865.40 98.28 C 866.80 98.88 867.97 99.89 869.17 100.83 C 870.09 102.05 871.39 103.09 871.71 104.69 L 872.80 104.67 C 872.62 105.14 872.28 106.09 872.10 106.56 L 873.24 106.53 C 874.05 109.98 875.26 113.40 875.26 116.99 C 875.43 120.92 874.16 124.69 873.22 128.46 L 872.12 128.43 C 872.28 128.90 872.62 129.85 872.78 130.33 L 871.76 130.29 C 871.25 131.81 870.11 132.95 869.14 134.17 C 867.97 135.09 866.90 136.22 865.44 136.66 L 865.32 137.19 C 862.27 138.07 859.25 139.44 856.01 139.24 C 853.05 139.20 850.30 137.93 847.48 137.23 L 847.67 136.20 C 847.29 136.28 846.54 136.43 846.17 136.51 C 845.54 135.33 844.60 134.59 843.36 134.26 L 843.94 133.30 L 842.81 133.50 C 841.99 132.23 841.12 130.99 840.32 129.72 C 836.62 122.15 836.62 112.84 840.32 105.27 C 841.12 103.99 841.99 102.75 842.81 101.47 L 843.96 101.72 L 843.31 100.69 C 844.58 100.42 845.53 99.69 846.17 98.50 C 846.54 98.57 847.29 98.71 847.66 98.78 L 847.51 97.76 M 849.44 107.61 C 846.19 112.40 846.18 118.81 847.81 124.21 C 848.87 127.33 851.37 130.48 854.86 130.82 C 857.88 131.33 861.23 130.33 863.04 127.75 C 866.62 122.93 866.01 116.49 865.15 110.89 C 864.44 109.65 863.84 108.35 863.00 107.20 C 859.80 102.91 852.38 103.14 849.44 107.61 Z" />
<path fill="#ffffff" opacity="1.00" d=" M 884.85 99.87 C 892.09 93.55 902.42 96.02 910.63 98.88 C 909.33 101.14 908.71 103.69 907.95 106.17 C 906.48 106.41 905.17 105.40 903.80 105.11 C 900.13 103.76 896.13 104.08 892.33 104.44 C 890.98 105.77 889.78 107.39 890.53 109.41 C 891.89 111.82 894.95 111.97 897.29 112.89 L 897.35 113.42 C 899.96 113.85 902.42 114.91 904.86 115.95 C 906.66 117.21 908.48 118.44 910.23 119.79 C 912.70 123.62 912.71 128.31 911.30 132.52 L 910.62 132.27 C 910.33 134.44 908.41 136.32 906.26 136.63 L 906.54 137.27 C 901.97 138.80 897.23 139.69 892.41 139.11 L 891.58 138.58 C 889.03 138.36 886.61 137.52 884.23 136.64 C 882.91 136.29 881.64 135.86 880.34 135.51 C 881.95 133.94 882.21 131.60 882.83 129.55 L 884.00 129.56 L 882.95 128.13 C 888.87 130.55 895.43 131.82 901.76 130.40 C 904.29 127.74 902.80 123.05 899.14 122.32 C 898.78 122.39 898.05 122.54 897.69 122.61 L 897.71 121.63 C 894.70 121.00 891.69 120.08 889.13 118.36 C 888.79 118.41 888.12 118.52 887.79 118.57 L 887.69 117.74 C 881.50 115.46 880.04 107.54 882.86 102.12 C 883.53 101.39 884.19 100.64 884.85 99.87 Z" />
<path fill="#ffffff" opacity="1.00" d=" M 1053.53 97.76 C 1056.64 96.99 1059.68 95.59 1062.96 95.77 C 1067.71 95.76 1072.14 97.66 1076.67 98.86 C 1076.11 100.38 1075.56 101.90 1075.15 103.46 L 1074.49 103.15 C 1074.44 103.99 1074.34 105.67 1074.29 106.51 C 1069.16 104.22 1063.45 103.64 1057.93 104.52 C 1057.10 106.39 1056.96 108.42 1057.33 110.42 C 1059.31 111.30 1061.25 112.35 1063.39 112.87 L 1063.29 113.43 C 1065.79 113.72 1068.10 114.81 1070.46 115.67 C 1072.11 116.60 1073.71 117.64 1075.24 118.79 C 1079.03 122.41 1079.32 128.34 1077.14 132.89 C 1076.46 133.63 1075.80 134.38 1075.17 135.15 C 1070.60 139.41 1063.63 139.80 1057.79 138.62 C 1054.15 138.28 1050.86 136.52 1047.25 136.04 C 1047.74 133.36 1048.82 130.85 1049.65 128.26 C 1055.24 130.81 1061.48 131.47 1067.54 130.60 C 1068.18 129.90 1068.84 129.22 1069.52 128.54 C 1069.52 127.49 1069.53 126.44 1069.57 125.39 C 1067.96 123.76 1065.91 122.71 1063.74 122.08 L 1063.66 121.60 C 1060.24 121.00 1057.14 119.40 1053.97 118.09 C 1053.70 117.78 1053.14 117.15 1052.87 116.83 C 1051.03 116.36 1049.71 115.09 1049.26 113.25 L 1048.71 113.51 C 1047.46 109.89 1047.44 106.12 1048.71 102.52 L 1049.34 102.70 C 1049.75 100.54 1051.56 98.80 1053.70 98.33 L 1053.53 97.76 Z" />
<path fill="#ffffff" opacity="1.00" d=" M 284.89 96.59 C 293.99 97.27 304.46 94.33 312.22 100.56 C 314.14 101.62 314.70 103.96 316.47 105.21 C 316.41 105.56 316.28 106.25 316.22 106.60 L 317.22 106.59 C 318.32 110.63 319.66 114.74 319.31 118.99 C 319.03 122.17 318.11 125.24 317.18 128.28 L 316.68 128.41 C 315.93 129.92 315.00 131.33 314.16 132.78 L 312.97 132.04 L 313.97 133.96 L 312.16 132.98 L 312.70 134.15 C 309.53 136.35 305.96 138.23 302.02 138.36 C 296.31 138.42 290.59 138.35 284.88 138.37 C 284.89 124.44 284.88 110.52 284.89 96.59 M 294.32 130.44 C 297.24 130.38 300.20 130.69 303.09 130.13 C 307.36 128.84 309.51 124.26 309.77 120.09 C 310.20 115.27 309.73 109.49 305.61 106.28 C 302.39 103.76 298.08 104.92 294.33 104.65 C 294.33 113.25 294.35 121.84 294.32 130.44 Z" />
<path fill="#ffffff" opacity="1.00" d=" M 326.57 96.55 C 336.55 96.64 346.53 96.58 356.51 96.58 C 355.44 99.09 354.49 101.68 354.21 104.42 C 347.92 104.35 341.64 104.48 335.36 104.33 C 335.47 107.17 335.46 110.02 335.40 112.86 C 340.67 113.18 346.09 112.15 351.25 113.52 C 351.17 115.84 351.17 118.17 351.23 120.49 C 346.05 121.65 340.68 120.79 335.42 121.08 C 335.45 124.29 335.48 127.50 335.36 130.71 C 342.29 130.61 349.21 130.70 356.14 130.66 C 356.14 133.23 356.14 135.81 356.15 138.39 C 346.29 138.39 336.42 138.32 326.56 138.42 C 326.64 124.47 326.63 110.51 326.57 96.55 Z" />
<path fill="#ffffff" opacity="1.00" d=" M 363.43 138.45 C 363.54 124.47 363.53 110.50 363.43 96.52 C 366.42 96.62 369.42 96.61 372.42 96.56 C 372.30 107.94 372.48 119.33 372.32 130.71 C 378.38 130.59 384.44 130.74 390.50 130.62 C 390.45 133.22 390.45 135.82 390.52 138.43 C 381.49 138.35 372.46 138.31 363.43 138.45 Z" />
<path fill="#ffffff" opacity="1.00" d=" M 397.80 96.59 C 400.90 96.59 404.00 96.59 407.10 96.60 C 407.11 110.52 407.10 124.45 407.11 138.38 C 404.00 138.37 400.89 138.37 397.79 138.39 C 397.81 124.45 397.79 110.52 397.80 96.59 Z" />
<path fill="#ffffff" opacity="1.00" d=" M 415.49 96.54 C 423.41 97.08 431.57 95.53 439.31 97.71 C 440.16 98.11 441.03 98.50 441.90 98.88 C 442.99 99.95 444.09 101.02 445.21 102.07 C 447.65 106.61 446.97 113.97 441.34 115.64 C 441.33 116.08 441.32 116.94 441.32 117.38 C 442.76 118.09 444.14 118.94 445.52 119.78 L 445.37 120.77 L 446.77 120.74 C 446.60 121.21 446.26 122.14 446.09 122.60 L 447.30 122.46 C 448.18 125.45 448.20 128.50 447.28 131.49 L 446.13 131.41 C 446.28 131.87 446.58 132.80 446.73 133.27 L 445.35 133.24 L 445.51 134.15 C 442.54 136.56 438.90 138.22 435.04 138.36 C 428.52 138.44 422.00 138.29 415.48 138.43 C 415.58 124.46 415.57 110.50 415.49 96.54 M 424.57 104.55 C 424.63 107.30 424.62 110.04 424.60 112.78 C 428.25 112.81 431.92 112.98 435.53 112.37 C 436.00 111.86 436.92 110.83 437.39 110.31 C 437.38 109.42 437.38 107.65 437.37 106.76 C 434.05 103.15 428.85 105.08 424.57 104.55 M 424.66 121.11 C 424.65 124.23 424.67 127.36 424.62 130.48 C 428.33 130.28 432.14 130.91 435.79 130.11 C 439.63 129.10 439.70 122.98 436.13 121.60 C 432.39 120.63 428.47 121.25 424.66 121.11 Z" />
<path fill="#ffffff" opacity="1.00" d=" M 454.84 96.60 C 464.83 96.56 474.81 96.66 484.80 96.54 C 484.09 99.21 483.29 101.85 482.42 104.47 C 476.34 104.31 470.25 104.47 464.17 104.36 C 464.19 107.19 464.18 110.02 464.18 112.85 C 469.27 112.88 474.36 112.87 479.45 112.86 C 479.42 115.44 479.42 118.02 479.54 120.61 C 474.47 121.43 469.31 120.92 464.20 121.07 C 464.18 124.27 464.19 127.48 464.17 130.69 C 470.93 130.62 477.70 130.72 484.47 130.63 C 484.41 133.23 484.41 135.83 484.48 138.43 C 474.60 138.31 464.72 138.40 454.84 138.38 C 454.85 124.45 454.84 110.52 454.84 96.60 Z" />
<path fill="#ffffff" opacity="1.00" d=" M 491.72 96.58 C 500.05 97.11 508.71 95.36 516.80 97.94 C 518.66 99.37 521.15 100.30 521.82 102.80 L 522.89 102.62 C 522.68 103.09 522.25 104.04 522.04 104.52 L 523.24 104.51 C 524.59 109.00 523.57 113.92 520.23 117.27 C 518.91 118.24 517.61 119.27 516.04 119.78 C 516.44 121.22 516.85 122.84 518.77 122.78 L 517.93 123.84 L 519.14 123.35 C 520.51 125.67 522.46 127.86 522.58 130.69 L 523.20 130.64 C 523.68 132.34 524.32 134.01 524.66 135.75 L 525.65 135.62 C 525.55 136.07 525.34 136.96 525.24 137.41 C 525.71 137.61 526.64 137.99 527.10 138.19 C 523.53 138.49 519.94 138.36 516.36 138.36 C 516.45 137.86 516.64 136.86 516.73 136.35 L 515.78 136.36 C 515.31 134.65 514.72 132.98 514.34 131.25 L 513.31 131.35 C 513.41 130.98 513.59 130.24 513.69 129.87 C 512.12 127.58 510.81 124.61 507.78 124.05 L 507.74 123.45 C 505.52 123.41 503.30 123.32 501.09 123.29 C 501.09 128.32 501.10 133.34 501.09 138.36 C 497.96 138.37 494.83 138.36 491.71 138.40 C 491.75 124.46 491.74 110.52 491.72 96.58 M 501.15 104.62 C 501.14 108.21 501.15 111.79 501.14 115.38 C 505.37 114.95 511.06 116.87 513.99 112.76 C 515.52 109.74 514.06 106.27 511.24 104.65 C 507.87 104.64 504.51 104.62 501.15 104.62 Z" />
<path fill="#ffffff" opacity="1.00" d=" M 544.92 96.59 C 548.99 96.59 553.07 96.60 557.15 96.58 C 558.05 102.08 560.44 107.23 561.56 112.67 L 562.13 112.66 C 563.07 116.40 564.94 119.88 565.58 123.70 L 566.14 123.60 C 566.83 126.33 568.16 128.88 568.58 131.69 L 569.14 131.65 C 569.77 133.99 570.51 136.31 571.72 138.42 C 568.48 138.35 565.24 138.38 562.00 138.37 C 561.61 136.55 561.03 134.80 560.39 133.07 C 554.04 133.08 547.70 132.93 541.36 133.16 C 541.38 133.72 541.42 134.84 541.44 135.39 L 540.49 135.21 C 540.44 136.00 540.34 137.59 540.28 138.39 C 536.99 138.37 533.70 138.34 530.41 138.43 C 530.96 137.21 531.48 135.98 531.96 134.73 L 532.42 134.66 C 532.88 131.88 534.14 129.33 534.86 126.62 L 535.43 126.68 C 536.04 122.87 537.91 119.42 538.89 115.71 L 539.41 115.66 C 540.98 109.23 543.87 103.16 544.92 96.59 M 550.14 108.51 C 549.12 114.10 546.93 119.36 545.17 124.74 C 549.09 124.79 553.00 124.78 556.92 124.74 C 555.19 119.12 552.65 113.72 551.89 107.84 C 551.46 108.00 550.58 108.34 550.14 108.51 Z" />
<path fill="#ffffff" opacity="1.00" d=" M 577.66 96.57 C 581.51 96.60 585.35 96.61 589.20 96.56 C 590.16 98.56 591.34 100.52 591.65 102.76 L 592.75 102.61 C 592.61 103.10 592.32 104.08 592.17 104.57 L 593.67 104.65 C 593.56 105.14 593.33 106.12 593.22 106.61 L 594.69 106.65 C 594.56 107.14 594.32 108.12 594.19 108.61 L 595.67 108.66 C 595.56 109.15 595.33 110.12 595.22 110.61 L 596.68 110.65 C 596.56 111.13 596.33 112.10 596.21 112.58 L 597.63 112.70 C 597.53 113.17 597.33 114.12 597.23 114.59 L 598.63 114.69 C 598.53 115.17 598.33 116.12 598.23 116.59 L 599.65 116.71 C 599.54 117.18 599.33 118.12 599.22 118.59 L 600.60 118.69 C 600.51 119.16 600.32 120.10 600.23 120.57 L 601.59 120.75 C 601.53 121.10 601.41 121.80 601.35 122.15 C 601.69 122.80 602.37 124.11 602.71 124.77 C 603.24 124.84 604.30 124.99 604.83 125.06 C 604.15 115.57 603.34 105.98 604.45 96.50 C 607.40 96.62 610.36 96.61 613.33 96.57 C 613.29 110.52 613.29 124.46 613.33 138.40 C 609.43 138.36 605.53 138.33 601.64 138.43 C 601.11 137.06 600.58 135.69 600.35 134.24 L 599.26 134.38 C 599.40 133.89 599.68 132.91 599.82 132.42 L 598.30 132.35 C 598.42 131.86 598.67 130.89 598.79 130.40 L 597.34 130.34 C 597.45 129.86 597.68 128.89 597.79 128.41 L 596.35 128.32 C 596.46 127.84 596.67 126.88 596.78 126.40 L 595.34 126.32 C 595.45 125.84 595.68 124.88 595.79 124.40 L 594.37 124.30 C 594.47 123.83 594.67 122.88 594.77 122.41 L 593.37 122.29 C 593.47 121.82 593.67 120.89 593.77 120.42 L 592.40 120.29 C 592.50 119.82 592.69 118.89 592.78 118.42 L 591.42 118.26 C 591.51 117.80 591.67 116.89 591.76 116.43 L 590.43 116.26 C 590.51 115.80 590.67 114.88 590.75 114.43 L 589.43 114.25 C 589.48 113.90 589.58 113.21 589.64 112.87 C 589.28 112.20 588.58 110.85 588.23 110.18 C 587.72 110.12 586.71 110.00 586.21 109.94 C 586.66 119.44 587.82 129.00 586.57 138.47 C 583.59 138.34 580.62 138.35 577.65 138.40 C 577.69 124.45 577.68 110.51 577.66 96.57 Z" />
<path fill="#ffffff" opacity="1.00" d=" M 619.80 96.58 C 631.28 96.60 642.76 96.60 654.24 96.57 C 654.22 99.19 654.22 101.80 654.24 104.42 C 649.94 104.37 645.65 104.46 641.37 104.33 C 641.61 115.69 641.33 127.06 641.51 138.43 C 638.52 138.35 635.54 138.35 632.56 138.42 C 632.70 127.05 632.48 115.69 632.68 104.33 C 628.38 104.46 624.09 104.38 619.80 104.41 C 619.81 101.79 619.81 99.19 619.80 96.58 Z" />
<path fill="#ffffff" opacity="1.00" d=" M 660.76 96.57 C 670.74 96.59 680.72 96.64 690.70 96.55 C 689.78 99.14 689.15 101.82 688.39 104.47 C 682.29 104.32 676.19 104.45 670.08 104.38 C 670.07 107.19 670.06 110.01 670.07 112.83 C 675.16 112.90 680.26 112.86 685.35 112.86 C 685.33 115.42 685.33 117.99 685.45 120.56 C 680.39 121.52 675.20 120.86 670.09 121.08 C 670.06 124.27 670.07 127.47 670.07 130.66 C 676.83 130.66 683.59 130.70 690.34 130.63 C 690.31 133.22 690.31 135.81 690.36 138.41 C 680.49 138.34 670.62 138.37 660.76 138.39 C 660.78 124.45 660.78 110.51 660.76 96.57 Z" />
<path fill="#ffffff" opacity="1.00" d=" M 709.64 96.56 C 718.91 97.27 729.60 94.30 737.43 100.80 L 737.33 101.87 L 738.23 101.46 C 739.08 102.86 740.19 104.13 740.72 105.72 L 741.86 105.61 C 741.67 106.10 741.27 107.08 741.07 107.57 L 742.24 107.49 C 743.05 110.97 744.01 114.47 744.05 118.06 C 743.72 121.23 743.04 124.34 742.21 127.41 L 741.14 127.46 C 741.28 127.91 741.57 128.83 741.71 129.28 L 740.76 129.31 C 740.20 130.77 739.15 131.94 738.20 133.14 C 736.96 134.10 735.85 135.33 734.29 135.73 L 734.36 136.80 C 733.88 136.62 732.92 136.27 732.44 136.09 L 732.48 137.23 C 725.06 139.38 717.24 137.94 709.64 138.41 C 709.70 124.46 709.69 110.51 709.64 96.56 M 718.51 104.44 C 718.68 113.16 718.66 121.89 718.52 130.62 C 721.90 130.59 725.29 130.60 728.68 130.43 L 728.81 129.29 C 729.24 129.41 730.10 129.65 730.53 129.77 L 730.31 128.45 L 731.60 128.62 L 731.40 127.38 L 732.29 127.60 C 735.58 121.37 735.53 113.59 732.26 107.36 L 731.31 107.71 L 731.58 106.33 L 730.08 106.70 L 730.80 105.75 C 726.87 104.16 722.65 104.49 718.51 104.44 Z" />
<path fill="#ffffff" opacity="1.00" d=" M 751.41 96.48 C 761.21 96.69 771.03 96.60 780.84 96.53 C 780.16 99.21 779.36 101.87 778.46 104.48 C 772.38 104.28 766.30 104.49 760.22 104.35 C 760.26 107.19 760.25 110.03 760.25 112.86 C 765.31 112.86 770.37 112.89 775.43 112.84 C 775.89 115.39 776.29 118.01 775.55 120.55 C 770.52 121.54 765.35 120.86 760.27 121.06 C 760.24 124.27 760.26 127.49 760.22 130.70 C 766.98 130.60 773.75 130.75 780.51 130.61 C 780.45 133.22 780.44 135.83 780.52 138.44 C 770.82 138.36 761.11 138.28 751.42 138.48 C 750.44 131.04 751.18 123.50 750.95 116.03 C 751.15 109.52 750.48 102.95 751.41 96.48 Z" />
<path fill="#ffffff" opacity="1.00" d=" M 799.85 96.58 C 805.89 96.64 811.93 96.52 817.98 96.63 C 822.59 96.95 828.01 98.93 829.69 103.66 L 830.24 103.63 C 831.61 107.83 832.05 112.49 830.28 116.65 C 829.05 119.64 826.39 121.36 823.83 123.09 C 819.12 124.76 814.14 125.34 809.16 125.09 C 809.14 129.52 809.15 133.95 809.16 138.38 C 806.05 138.37 802.95 138.37 799.85 138.39 C 799.87 124.45 799.86 110.52 799.85 96.58 M 809.26 104.66 C 809.26 108.71 809.23 112.77 809.27 116.83 C 813.05 116.69 817.76 117.79 820.63 114.62 C 823.48 111.76 822.51 105.95 818.42 104.82 C 815.37 104.48 812.30 104.72 809.26 104.66 Z" />
<path fill="#ffffff" opacity="1.00" d=" M 930.87 96.58 C 934.94 96.60 939.01 96.59 943.08 96.60 C 944.13 103.17 947.05 109.24 948.59 115.67 L 949.12 115.70 C 950.06 119.43 952.01 122.89 952.56 126.72 L 953.14 126.59 C 953.83 129.32 955.18 131.88 955.58 134.69 L 956.08 134.67 C 956.49 135.96 957.01 137.21 957.63 138.42 C 954.32 138.34 951.02 138.37 947.73 138.39 C 947.68 137.59 947.56 135.99 947.51 135.20 L 946.56 135.37 C 946.58 134.82 946.63 133.72 946.65 133.17 C 940.30 132.92 933.95 133.08 927.60 133.08 C 926.96 134.81 926.38 136.56 926.03 138.37 C 922.77 138.37 919.52 138.35 916.28 138.42 C 917.47 136.32 918.21 134.01 918.87 131.70 L 919.41 131.67 C 919.87 128.89 921.13 126.34 921.85 123.62 L 922.40 123.69 C 923.07 119.89 924.89 116.42 925.88 112.70 L 926.42 112.67 C 927.63 107.24 929.89 102.07 930.87 96.58 M 936.10 107.86 C 935.31 113.72 932.81 119.13 931.08 124.73 C 935.01 124.79 938.93 124.79 942.87 124.72 C 941.08 119.37 938.84 114.12 937.88 108.53 C 937.43 108.36 936.54 108.03 936.10 107.86 Z" />
<path fill="#ffffff" opacity="1.00" d=" M 963.63 96.56 C 972.88 97.29 983.59 94.28 991.39 100.80 L 991.37 101.82 L 992.22 101.51 C 993.07 102.89 994.19 104.14 994.72 105.71 L 995.84 105.62 C 995.65 106.11 995.27 107.07 995.08 107.55 L 996.24 107.51 C 998.39 114.03 998.47 120.97 996.18 127.47 L 995.12 127.42 C 995.27 127.88 995.56 128.81 995.70 129.27 L 994.75 129.33 C 994.19 130.79 993.13 131.94 992.18 133.15 C 990.95 134.11 989.84 135.33 988.29 135.73 L 988.36 136.80 C 987.88 136.62 986.91 136.27 986.43 136.10 L 986.49 137.23 C 979.06 139.38 971.24 137.94 963.63 138.41 C 963.69 124.46 963.68 110.51 963.63 96.56 M 972.51 104.44 C 972.67 113.16 972.65 121.89 972.51 130.61 C 975.76 130.59 979.02 130.60 982.28 130.43 C 983.56 129.62 985.04 128.95 985.85 127.57 L 986.30 127.57 C 989.58 121.35 989.52 113.59 986.26 107.38 L 985.32 107.67 L 985.58 106.28 L 984.08 106.75 L 984.80 105.76 C 980.87 104.15 976.64 104.50 972.51 104.44 Z" />
<path fill="#ffffff" opacity="1.00" d=" M 1011.43 111.69 C 1012.57 106.58 1014.55 101.67 1015.70 96.55 C 1019.61 96.61 1023.53 96.64 1027.46 96.52 C 1029.00 103.38 1031.87 109.86 1033.59 116.66 L 1034.12 116.67 C 1034.86 119.35 1036.09 121.90 1036.59 124.66 L 1037.11 124.71 C 1038.10 128.43 1039.92 131.91 1040.61 135.71 L 1041.29 135.56 C 1041.42 136.53 1041.57 137.50 1041.74 138.47 C 1038.72 138.33 1035.71 138.35 1032.71 138.40 C 1032.25 136.69 1031.65 135.01 1031.40 133.25 C 1025.24 132.90 1019.05 133.00 1012.88 133.13 C 1011.04 134.16 1011.27 136.73 1010.41 138.44 C 1007.31 138.34 1004.22 138.35 1001.14 138.43 C 1003.09 133.19 1005.31 128.04 1006.87 122.66 L 1007.41 122.70 C 1008.10 118.88 1009.92 115.38 1010.90 111.64 L 1011.43 111.69 M 1020.91 107.53 C 1020.02 113.47 1017.48 118.98 1015.80 124.71 C 1019.73 124.80 1023.67 124.79 1027.61 124.73 C 1025.55 119.07 1023.30 113.42 1022.21 107.48 L 1020.91 107.53 Z" />
</g>
</svg>
