<?xml version="1.0" encoding="UTF-8" ?>
<!DOCTYPE svg PUBLIC "-//W3C//DTD SVG 1.1//EN" "http://www.w3.org/Graphics/SVG/1.1/DTD/svg11.dtd">
<svg width="150pt" height="150pt" viewBox="0 0 150 150" version="1.1" xmlns="http://www.w3.org/2000/svg">
<g id="#010101ff">
<path fill="#010101" opacity="1.00" d=" M 20.27 24.55 C 24.11 22.25 28.73 22.80 33.00 22.79 C 53.32 22.84 73.65 22.78 93.98 22.81 C 100.13 22.32 105.62 27.95 105.43 34.02 C 105.57 46.00 105.54 57.98 105.46 69.96 C 105.92 73.62 99.81 74.16 99.64 70.52 C 99.34 58.34 99.81 46.13 99.42 33.95 C 99.45 31.11 97.00 28.51 94.08 28.79 C 75.93 28.68 57.77 28.86 39.62 28.71 C 40.43 31.39 40.98 34.17 40.94 36.98 C 40.92 63.31 40.94 89.64 40.92 115.97 C 41.05 117.93 40.76 120.18 42.15 121.79 C 45.17 125.85 52.53 125.42 54.71 120.72 C 55.53 118.38 55.32 114.28 58.95 114.71 C 79.61 114.63 100.27 114.73 120.93 114.66 C 122.70 114.71 124.84 114.47 126.03 116.10 C 127.42 123.21 121.20 130.42 114.02 130.45 C 98.68 130.59 83.33 130.48 67.99 130.50 C 66.64 130.36 64.72 130.70 64.08 129.13 C 62.70 127.18 64.50 124.19 66.91 124.58 C 82.28 124.46 97.67 124.62 113.04 124.51 C 115.92 124.75 118.08 122.74 119.81 120.73 C 100.31 120.53 80.82 120.70 61.33 120.64 C 60.29 123.08 59.20 125.65 57.06 127.35 C 51.67 132.10 42.38 131.52 37.75 125.97 C 35.44 123.23 34.55 119.54 34.51 116.02 C 34.56 89.66 34.51 63.29 34.55 36.93 C 34.57 34.68 34.23 32.17 32.46 30.59 C 30.09 28.55 26.43 28.53 23.62 29.57 C 20.25 31.16 19.99 35.12 19.21 38.29 C 17.38 38.41 14.45 39.14 14.13 36.51 C 13.34 31.80 16.24 26.90 20.27 24.55 Z" />
<path fill="#010101" opacity="1.00" d=" M 53.11 39.03 C 64.13 38.77 75.18 38.94 86.21 38.95 C 88.94 38.82 90.24 42.78 87.96 44.36 C 85.78 45.23 83.33 44.80 81.03 44.92 C 71.65 44.73 62.24 45.16 52.87 44.72 C 49.86 44.34 50.04 39.18 53.11 39.03 Z" />
<path fill="#010101" opacity="1.00" d=" M 13.59 44.99 C 14.18 43.17 15.61 40.73 17.92 41.98 C 20.69 42.46 20.50 46.87 17.96 47.60 C 17.20 47.57 15.69 47.50 14.94 47.47 C 14.60 46.85 13.93 45.61 13.59 44.99 Z" />
<path fill="#010101" opacity="1.00" d=" M 53.07 50.04 C 63.73 49.61 74.43 49.97 85.11 49.86 C 87.47 49.35 89.65 51.48 89.09 53.85 C 87.74 56.55 84.49 55.80 82.05 55.92 C 72.33 55.74 62.58 56.14 52.87 55.74 C 49.87 55.26 49.97 50.13 53.07 50.04 Z" />
<path fill="#010101" opacity="1.00" d=" M 122.15 56.90 C 124.58 55.34 127.10 57.79 126.65 60.35 C 125.83 61.05 125.04 61.80 124.30 62.59 C 121.03 63.04 119.09 58.44 122.15 56.90 Z" />
<path fill="#010101" opacity="1.00" d=" M 53.01 60.98 C 64.05 60.73 75.12 60.85 86.16 60.92 C 88.26 60.66 89.93 63.41 88.77 65.10 C 88.11 67.15 85.67 66.72 84.00 66.84 C 73.91 66.78 63.81 66.95 53.72 66.76 C 50.23 67.28 49.50 61.33 53.01 60.98 Z" />
<path fill="#010101" opacity="1.00" d=" M 117.23 62.06 C 118.50 61.26 120.15 61.98 121.02 63.05 C 123.59 65.70 126.36 68.18 128.73 71.01 C 129.57 73.26 127.58 74.77 126.23 76.20 C 117.98 84.29 109.82 92.47 101.64 100.63 C 97.69 104.73 91.95 106.02 86.78 107.86 C 84.80 108.93 82.03 107.31 82.54 104.95 C 83.31 101.58 84.67 98.36 85.92 95.14 C 87.86 90.08 92.44 86.85 96.01 83.00 C 103.16 76.11 109.88 68.74 117.23 62.06 M 118.47 69.04 C 110.33 77.42 101.94 85.53 93.77 93.87 C 91.95 95.59 91.23 98.02 90.39 100.29 C 93.14 99.30 95.88 98.08 97.91 95.90 C 105.80 87.99 113.72 80.10 121.61 72.18 C 120.56 71.13 119.52 70.08 118.47 69.04 Z" />
<path fill="#010101" opacity="1.00" d=" M 125.31 64.90 C 125.01 62.96 126.88 61.01 128.79 61.03 C 131.48 62.08 133.06 64.64 134.52 66.97 C 133.60 68.58 132.10 70.47 129.97 69.68 C 128.16 68.37 126.57 66.74 125.31 64.90 Z" />
<path fill="#010101" opacity="1.00" d=" M 53.09 72.10 C 58.40 71.67 63.74 72.07 69.06 71.94 C 75.53 72.17 82.06 71.39 88.47 72.46 C 88.74 74.03 89.48 75.89 88.20 77.24 C 86.65 78.21 84.72 77.89 82.99 77.99 C 73.31 77.85 63.61 78.03 53.93 77.97 C 50.29 78.47 49.44 72.48 53.09 72.10 Z" />
</g>
</svg>
